# AST/ASF file generated using VICON BodyLanguage
# -----------------------------------------------
:version 1.10
:name VICON
:units
  mass 1.0
  length 0.45
  angle deg
:documentation
   .ast/.asf automatically generated from VICON data using
   VICON BodyBuilder and BodyLanguage model FoxedUp or BRILLIANT.MOD
:root
   order TX TY TZ RX RY RZ
   axis XYZ
   position 0 0 0  
   orientation 0 0 0 
:bonedata
  begin
     id 1 
     name lhipjoint
     direction 0.612567 -0.751349 0.245431 
     length 2.42285 
     axis 0 0 0  XYZ
  end
  begin
     id 2 
     name lfemur
     direction 0.34202 -0.939693 0  
     length 7.11304  
     axis 0 0 20  XYZ
    dof rx ry rz
    limits (-160.0 20.0)
           (-70.0 70.0)
           (-60.0 70.0)
  end
  begin
     id 3 
     name ltibia
     direction 0.34202 -0.939693 0   
     length 7.84529   
     axis 0 0 20   XYZ
    dof rx
    limits (-10.0 170.0)
  end
  begin
     id 4 
     name lfoot
     direction 0.0779239 -0.214094 0.9737   
     length 1.97176   
     axis -90 7.62852e-016 20   XYZ
    dof rx rz
    limits (-45.0 90.0)
           (-70.0 20.0)
  end
  begin
     id 5 
     name ltoes
     direction 1.53565e-011 -4.21709e-011 1   
     length 0.993197   
     axis -90 7.62852e-016 20   XYZ
    dof rx
    limits (-90.0 20.0)
  end
  begin
     id 6 
     name rhipjoint
     direction -0.665722 -0.709315 0.231701   
     length 2.56642  
     axis 0 0 0  XYZ 
  end
  begin
     id 7 
     name rfemur
     direction -0.34202 -0.939693 0   
     length 7.32108   
     axis 0 0 -20   XYZ
    dof rx ry rz
    limits (-160.0 20.0)
           (-70.0 70.0)
           (-70.0 60.0)
  end
  begin
     id 8 
     name rtibia
     direction -0.34202 -0.939693 0   
     length 7.81254   
     axis 0 0 -20   XYZ
    dof rx
    limits (-10.0 170.0)
 end
 begin
     id 9 
     name rfoot
     direction -0.0832806 -0.228812 0.969902   
     length 2.08278  
     axis -90 -7.62852e-016 -20   XYZ
    dof rx rz
    limits (-45.0 90.0)
           (-20.0 70.0)
  end
  begin
     id 10 
     name rtoes
     direction -1.53589e-011 -4.22086e-011 1   
     length 1.04609   
     axis -90 -7.62852e-016 -20   XYZ
    dof rx
    limits (-90.0 20.0)
  end
  begin
     id 11 
     name lowerback
     direction -0.00506013 0.988403 -0.151766   
     length 2.01978   
     axis 0 0 0   XYZ
    dof rx ry rz
    limits (-20.0 45.0)
           (-30.0 30.0)
           (-30.0 30.0)
  end
  begin
     id 12 
     name upperback
     direction -0.00836389 0.99968 0.0238859   
     length 2.01276   
     axis 0 0 0   XYZ
    dof rx ry rz
    limits (-20.0 45.0)
           (-30.0 30.0)
           (-30.0 30.0)
  end
  begin
     id 13 
     name thorax
     direction -0.00684136 0.995386 0.0957043   
     length 2.07303   
     axis 0 0 0   XYZ
    dof rx ry rz
    limits (-20.0 45.0)
           (-30.0 30.0)
           (-30.0 30.0)
  end
  begin
     id 14 
     name lowerneck
     direction -0.0161045 0.999661 0.0204485   
     length 1.91243   
     axis 0 0 0   XYZ
    dof rx ry rz
    limits (-20.0 45.0)
           (-30.0 30.0)
           (-30.0 30.0)
  end
  begin
     id 15 
     name upperneck
     direction 0.0553583 0.990946 -0.122319   
     length 1.91574   
     axis 0 0 0   XYZ
    dof rx ry rz
    limits (-20.0 45.0)
           (-30.0 30.0)
           (-30.0 30.0)
  end
  begin
     id 16
     name head
     direction 0.0180273 0.998839 -0.0446756  
     length 1.92693  
     axis 0 0 0   XYZ
    dof rx ry rz
    limits (-20.0 45.0)
           (-30.0 30.0)
           (-30.0 30.0)
  end
  begin
     id 17 
     name lclavicle
     direction 0.945646 0.319323 -0.0615358  
     length 4.0076  
     axis 0 0 0   XYZ
    dof ry rz
    limits (-20.0 10.0)
           (0.0 20.0)
  end
  begin
     id 18 
     name lhumerus
     direction 1 -4.48967e-011 -2.79996e-027   
     length 5.64147   
     axis 180 -30 -90   XYZ
    dof rx ry rz
    limits (-60.0 90.0)
           (-90.0 90.0)
           (-90.0 90.0)
  end
  begin
     id 19
     name lradius
     direction 1 -4.48976e-011 -9.5122e-027   
     length 2.86444   
     axis 180 -30 -90   XYZ
    dof rx
    limits (-10.0 170.0)
  end
  begin
     id 20
     name lwrist
     direction 1 -4.48983e-011 -1.24047e-026   
     length 1.43222   
     axis 9.05591e-015 90 90   XYZ
    dof ry
    limits (-180.0 0.0)
 end
  begin
     id 21 
     name lhand
     direction 1 -4.4892e-011 -2.48094e-026   
     length 0.722123   
     axis 1.58305e-014 90 90   XYZ
    dof rx rz
    limits (-90.0 90.0)
           (-45.0 45.0)
  end
  begin
     id 22 
     name lfingers
     direction 1 -4.48895e-011 -4.96187e-026   
     length 0.582194   
     axis 3.1661e-014 90 90   XYZ
    dof rx
    limits (0.0 90.0)
  end
  begin
     id 23
     name lthumb
     direction 0.707107 -6.34961e-011 0.707107   
     length 0.835918   
     axis -90 45 2.85299e-015   XYZ
    dof rx rz
    limits (-45.0 45.0)
           (-45.0 45.0)
  end
  begin
     id 24 
     name rclavicle
     direction -0.932635 0.324218 -0.15835   
     length 3.65819  
     axis 0 0 0   XYZ 
    dof ry rz
    limits (-10.0 20.0)
           (-20.0 0.0)
  end
  begin
     id 25 
     name rhumerus
     direction -1 -4.48965e-011 -4.02296e-027  
     length 5.44729   
     axis 180 30 90   XYZ
    dof rx ry rz
    limits (-90.0 60.0)
           (-90.0 90.0)
           (-90.0 90.0)
  end
  begin
     id 26 
     name rradius
     direction -1 -4.48957e-011 -8.81087e-027   
     length 3.08821   
     axis 180 30 90   XYZ
    dof rx
    limits (-10.0 170.0)
  end
  begin
     id 27 
     name rwrist
     direction -1 -4.49015e-011 -1.24047e-026   
     length 1.5441   
     axis 9.05591e-015 -90 -90   XYZ
    dof ry
    limits (-180.0 0.0)
  end
  begin
     id 28
     name rhand
     direction -1 -4.4891e-011 -2.48094e-026   
     length 0.821049   
     axis 1.58305e-014 -90 -90   XYZ
    dof rx rz
    limits (-90.0 90.0)
           (-45.0 45.0)
  end
  begin
     id 29
     name rfingers
     direction -1 -4.48985e-011 -4.96187e-026   
     length 0.661951   
     axis 3.1661e-014 -90 -90   XYZ
    dof rx
    limits (0.0 90.0)
  end
  begin
     id 30
     name rthumb
     direction -0.707107 -6.34906e-011 0.707107   
     length 0.950433   
     axis -90 -45 -2.85299e-015   XYZ
    dof rx rz
    limits (-45.0 45.0)
           (-45.0 45.0)
  end
:hierarchy
  begin
    root lhipjoint rhipjoint lowerback
    lhipjoint lfemur
    lfemur ltibia
    ltibia lfoot
    lfoot ltoes
    rhipjoint rfemur
    rfemur rtibia
    rtibia rfoot
    rfoot rtoes
    lowerback upperback
    upperback thorax
    thorax lowerneck lclavicle rclavicle
    lowerneck upperneck
    upperneck head
    lclavicle lhumerus
    lhumerus lradius
    lradius lwrist
    lwrist lhand lthumb
    lhand lfingers
    rclavicle rhumerus
    rhumerus rradius
    rradius rwrist
    rwrist rhand rthumb
    rhand rfingers
  end

#!OML:ASF F:\VICON\USERDATA\INSTALL\rory3\rory3.ASF
:FULLY-SPECIFIED
:DEGREES
872
root 4.68291 17.448 0.0947755 -181.062 -37.8618 -179.552
lowerback -0.927536 0.802358 4.02598
upperback 2.73515 0.942874 -0.679222
thorax 3.41869 0.57109 -2.9218
lowerneck -2.67359 -4.83879 -4.25408
upperneck 13.6618 -7.42573 5.50611
head 4.89541 -3.72112 1.99423
rclavicle 3.55871e-014 -1.84497e-015
rhumerus -33.9904 -4.6732 -83.9375
rradius 23.7735
rwrist 21.0369
rhand -8.95932 8.42781
rfingers 7.12502
rthumb 16.9856 -20.8495
lclavicle 3.55871e-014 -1.84497e-015
lhumerus -34.0746 -3.87255 87.381
lradius 29.0587
lwrist 33.2385
lhand -13.4739 9.58553
lfingers 7.12502
lthumb 12.6363 39.1833
rfemur -4.78658 -5.18709 26.7845
rtibia 25.1431
rfoot -20.6333 1.72335
rtoes -2.70389
lfemur -19.3269 -1.58378 -18.8942
ltibia 47.859
lfoot -16.484 -0.556572
ltoes -17.3944
873
root 4.6461 17.442 0.0381105 -181.116 -37.9 -179.506
lowerback -0.893378 0.805142 4.18
upperback 2.77345 0.942162 -0.691461
thorax 3.44278 0.57562 -3.02129
lowerneck -2.60574 -4.81649 -4.31696
upperneck 13.6378 -7.39806 5.54871
head 4.87888 -3.70998 2.02132
rclavicle 6.3879e-014 -1.77477e-014
rhumerus -33.7348 -4.8514 -83.921
rradius 23.6246
rwrist 21.4119
rhand -8.86041 8.81229
rfingers 7.12502
rthumb 17.0808 -20.4568
lclavicle 6.3879e-014 -1.77477e-014
lhumerus -34.1576 -3.81957 87.4166
lradius 29.2472
lwrist 33.2905
lhand -13.3564 9.69939
lfingers 7.12502
lthumb 12.7496 39.2901
rfemur -4.38893 -5.34446 26.8001
rtibia 24.9349
rfoot -20.8118 1.95621
rtoes -1.59906
lfemur -19.8853 -1.75483 -19.0147
ltibia 46.9683
lfoot -16.5331 -0.323047
ltoes -18.5441
874
root 4.60908 17.4439 -0.0171659 -181.146 -37.9376 -179.586
lowerback -0.792026 0.83714 4.2711
upperback 2.84598 0.98498 -0.765291
thorax 3.46816 0.601204 -3.14809
lowerneck -2.62487 -4.83645 -4.28956
upperneck 13.6386 -7.43087 5.58321
head 4.88431 -3.7222 2.02501
rclavicle 2.01512e-014 -5.95927e-015
rhumerus -33.4175 -5.28013 -83.8701
rradius 23.4366
rwrist 21.8148
rhand -8.84796 9.058
rfingers 7.12502
rthumb 17.0928 -20.2101
lclavicle 2.01512e-014 -5.95927e-015
lhumerus -34.201 -3.94116 87.4617
lradius 29.4265
lwrist 33.3571
lhand -13.223 9.79133
lfingers 7.12502
lthumb 12.8783 39.374
rfemur -3.8588 -5.37897 26.721
rtibia 24.5771
rfoot -20.9243 1.9816
rtoes -0.764864
lfemur -20.3829 -1.97591 -19.2196
ltibia 46.0219
lfoot -16.5648 -0.236621
ltoes -17.1518
875
root 4.57416 17.4568 -0.077924 -181.146 -37.8957 -179.706
lowerback -0.671492 0.890767 4.20168
upperback 2.88747 1.06158 -0.792457
thorax 3.44873 0.637301 -3.13543
lowerneck -2.61263 -4.85887 -4.296
upperneck 13.6962 -7.4685 5.58385
head 4.90218 -3.74184 2.02369
rclavicle -8.8285e-014 7.40007e-015
rhumerus -33.1741 -5.45976 -83.8248
rradius 23.3083
rwrist 22.0475
rhand -8.81524 9.21421
rfingers 7.12502
rthumb 17.1243 -20.0511
lclavicle -8.8285e-014 7.40007e-015
lhumerus -34.318 -4.2437 87.6702
lradius 29.6105
lwrist 33.6152
lhand -13.3455 9.83841
lfingers 7.12502
lthumb 12.7601 39.4285
rfemur -3.28648 -5.35666 26.6253
rtibia 24.1484
rfoot -20.8237 1.89895
rtoes -1.01862
lfemur -20.8508 -2.21257 -19.3952
ltibia 45.0361
lfoot -16.5686 -0.320099
ltoes -13.496
876
root 4.5385 17.4739 -0.142267 -181.253 -37.8636 -179.585
lowerback -0.569926 0.948033 4.30588
upperback 2.86541 1.1394 -0.75801
thorax 3.37705 0.676481 -3.15692
lowerneck -2.4291 -4.89656 -4.28927
upperneck 13.6479 -7.52077 5.53968
head 4.85723 -3.77462 2.01158
rclavicle 4.87139e-015 -1.02902e-014
rhumerus -33.0427 -5.56063 -83.7899
rradius 23.2168
rwrist 22.2116
rhand -8.82284 9.58207
rfingers 7.12502
rthumb 17.117 -19.6839
lclavicle 4.87139e-015 -1.02902e-014
lhumerus -34.5779 -4.46612 87.882
lradius 29.7996
lwrist 33.5867
lhand -13.4479 9.87307
lfingers 7.12502
lthumb 12.6614 39.4693
rfemur -2.77825 -5.44195 26.7296
rtibia 23.7697
rfoot -20.8199 1.89636
rtoes -1.0818
lfemur -21.3369 -2.40201 -19.3496
ltibia 44.0089
lfoot -16.5959 -0.426035
ltoes -8.87835
